<?xml version="1.0" encoding="UTF-8"?>
<svg xmlns="http://www.w3.org/2000/svg"
     xmlns:xlink="http://www.w3.org/1999/xlink"
     xmlns:gadfly="http://www.gadflyjl.org/ns"
     version="1.2"
     width="152.4mm" height="76.2mm" viewBox="0 0 152.4 76.2"
     stroke="none"
     fill="#000000"
     stroke-width="0.3"
     font-size="3.88"
>
<g class="plotroot xscalable yscalable" id="img-b73a8ed8-1">
  <g font-size="3.88" font-family="'PT Sans','Helvetica Neue','Helvetica',sans-serif" fill="#564A55" stroke="#000000" stroke-opacity="0.000" id="img-b73a8ed8-2">
    <text x="81.84" y="64.59" text-anchor="middle" dy="0.6em">sepal length [cm]</text>
  </g>
  <g class="guide xlabels" font-size="2.82" font-family="'PT Sans Caption','Helvetica Neue','Helvetica',sans-serif" fill="#6C606B" id="img-b73a8ed8-3">
    <text x="18.28" y="57.91" text-anchor="middle" dy="0.6em">4</text>
    <text x="60.66" y="57.91" text-anchor="middle" dy="0.6em">5</text>
    <text x="103.03" y="57.91" text-anchor="middle" dy="0.6em">6</text>
    <text x="145.4" y="57.91" text-anchor="middle" dy="0.6em">7</text>
  </g>
<g clip-path="url(#img-b73a8ed8-4)">
  <g id="img-b73a8ed8-5">
    <g pointer-events="visible" opacity="1" fill="#000000" fill-opacity="0.000" stroke="#000000" stroke-opacity="0.000" class="guide background" id="img-b73a8ed8-6">
      <rect x="16.28" y="5" width="131.11" height="51.91"/>
    </g>
    <g class="guide ygridlines xfixed" stroke-dasharray="0.5,0.5" stroke-width="0.2" stroke="#D0D0E0" id="img-b73a8ed8-7">
      <path fill="none" d="M16.28,54.91 L 147.4 54.91"/>
      <path fill="none" d="M16.28,46.93 L 147.4 46.93"/>
      <path fill="none" d="M16.28,38.94 L 147.4 38.94"/>
      <path fill="none" d="M16.28,30.96 L 147.4 30.96"/>
      <path fill="none" d="M16.28,22.97 L 147.4 22.97"/>
      <path fill="none" d="M16.28,14.99 L 147.4 14.99"/>
      <path fill="none" d="M16.28,7 L 147.4 7"/>
    </g>
    <g class="guide xgridlines yfixed" stroke-dasharray="0.5,0.5" stroke-width="0.2" stroke="#D0D0E0" id="img-b73a8ed8-8">
      <path fill="none" d="M18.28,5 L 18.28 56.91"/>
      <path fill="none" d="M60.66,5 L 60.66 56.91"/>
      <path fill="none" d="M103.03,5 L 103.03 56.91"/>
      <path fill="none" d="M145.4,5 L 145.4 56.91"/>
    </g>
    <g class="plotpanel" id="img-b73a8ed8-9">
      <g class="geometry" id="img-b73a8ed8-10">
        <g class="color_RGBA{Float32}(1.0f0,0.0f0,0.0f0,1.0f0)" stroke="#FFFFFF" stroke-width="0.3" fill="#FF0000" id="img-b73a8ed8-11">
          <use xlink:href="#img-b73a8ed8-12" x="60.66" y="43.73"/>
          <use xlink:href="#img-b73a8ed8-12" x="145.4" y="17.38"/>
          <use xlink:href="#img-b73a8ed8-12" x="119.98" y="18.98"/>
          <use xlink:href="#img-b73a8ed8-12" x="141.16" y="15.78"/>
          <use xlink:href="#img-b73a8ed8-12" x="81.84" y="22.97"/>
          <use xlink:href="#img-b73a8ed8-12" x="124.21" y="18.18"/>
          <use xlink:href="#img-b73a8ed8-12" x="90.32" y="18.98"/>
          <use xlink:href="#img-b73a8ed8-12" x="115.74" y="17.38"/>
          <use xlink:href="#img-b73a8ed8-12" x="56.42" y="28.56"/>
          <use xlink:href="#img-b73a8ed8-12" x="128.45" y="18.18"/>
          <use xlink:href="#img-b73a8ed8-12" x="69.13" y="23.77"/>
          <use xlink:href="#img-b73a8ed8-12" x="60.66" y="26.96"/>
          <use xlink:href="#img-b73a8ed8-12" x="98.79" y="21.37"/>
          <use xlink:href="#img-b73a8ed8-12" x="103.03" y="22.97"/>
          <use xlink:href="#img-b73a8ed8-12" x="107.27" y="17.38"/>
          <use xlink:href="#img-b73a8ed8-12" x="86.08" y="26.17"/>
          <use xlink:href="#img-b73a8ed8-12" x="132.69" y="19.78"/>
          <use xlink:href="#img-b73a8ed8-12" x="86.08" y="18.98"/>
          <use xlink:href="#img-b73a8ed8-12" x="94.55" y="22.17"/>
          <use xlink:href="#img-b73a8ed8-12" x="111.5" y="18.98"/>
          <use xlink:href="#img-b73a8ed8-12" x="86.08" y="23.77"/>
          <use xlink:href="#img-b73a8ed8-12" x="98.79" y="16.58"/>
          <use xlink:href="#img-b73a8ed8-12" x="107.27" y="22.97"/>
          <use xlink:href="#img-b73a8ed8-12" x="115.74" y="15.78"/>
          <use xlink:href="#img-b73a8ed8-12" x="107.27" y="17.38"/>
          <use xlink:href="#img-b73a8ed8-12" x="119.98" y="20.58"/>
          <use xlink:href="#img-b73a8ed8-12" x="128.45" y="19.78"/>
          <use xlink:href="#img-b73a8ed8-12" x="136.93" y="16.58"/>
          <use xlink:href="#img-b73a8ed8-12" x="132.69" y="14.99"/>
          <use xlink:href="#img-b73a8ed8-12" x="103.03" y="18.98"/>
          <use xlink:href="#img-b73a8ed8-12" x="90.32" y="26.96"/>
          <use xlink:href="#img-b73a8ed8-12" x="81.84" y="24.57"/>
          <use xlink:href="#img-b73a8ed8-12" x="81.84" y="25.37"/>
          <use xlink:href="#img-b73a8ed8-12" x="94.55" y="23.77"/>
          <use xlink:href="#img-b73a8ed8-12" x="103.03" y="14.19"/>
          <use xlink:href="#img-b73a8ed8-12" x="77.61" y="18.98"/>
          <use xlink:href="#img-b73a8ed8-12" x="103.03" y="18.98"/>
          <use xlink:href="#img-b73a8ed8-12" x="132.69" y="17.38"/>
          <use xlink:href="#img-b73a8ed8-12" x="115.74" y="19.78"/>
          <use xlink:href="#img-b73a8ed8-12" x="86.08" y="22.17"/>
          <use xlink:href="#img-b73a8ed8-12" x="81.84" y="22.97"/>
          <use xlink:href="#img-b73a8ed8-12" x="81.84" y="19.78"/>
          <use xlink:href="#img-b73a8ed8-12" x="107.27" y="18.18"/>
          <use xlink:href="#img-b73a8ed8-12" x="94.55" y="22.97"/>
          <use xlink:href="#img-b73a8ed8-12" x="60.66" y="28.56"/>
          <use xlink:href="#img-b73a8ed8-12" x="86.08" y="21.37"/>
          <use xlink:href="#img-b73a8ed8-12" x="90.32" y="21.37"/>
          <use xlink:href="#img-b73a8ed8-12" x="90.32" y="21.37"/>
          <use xlink:href="#img-b73a8ed8-12" x="111.5" y="20.58"/>
          <use xlink:href="#img-b73a8ed8-12" x="64.89" y="30.96"/>
          <use xlink:href="#img-b73a8ed8-12" x="90.32" y="22.17"/>
        </g>
      </g>
      <g class="geometry" id="img-b73a8ed8-13">
        <g class="color_RGBA{Float32}(0.0f0,0.0f0,1.0f0,1.0f0)" stroke="#FFFFFF" stroke-width="0.3" fill="#0000FF" id="img-b73a8ed8-14">
          <use xlink:href="#img-b73a8ed8-15" x="64.89" y="43.73"/>
          <use xlink:href="#img-b73a8ed8-15" x="56.42" y="43.73"/>
          <use xlink:href="#img-b73a8ed8-15" x="47.95" y="44.53"/>
          <use xlink:href="#img-b73a8ed8-15" x="43.71" y="42.94"/>
          <use xlink:href="#img-b73a8ed8-15" x="60.66" y="43.73"/>
          <use xlink:href="#img-b73a8ed8-15" x="77.61" y="41.34"/>
          <use xlink:href="#img-b73a8ed8-15" x="43.71" y="43.73"/>
          <use xlink:href="#img-b73a8ed8-15" x="60.66" y="42.94"/>
          <use xlink:href="#img-b73a8ed8-15" x="35.23" y="43.73"/>
          <use xlink:href="#img-b73a8ed8-15" x="56.42" y="42.94"/>
          <use xlink:href="#img-b73a8ed8-15" x="77.61" y="42.94"/>
          <use xlink:href="#img-b73a8ed8-15" x="52.18" y="42.14"/>
          <use xlink:href="#img-b73a8ed8-15" x="52.18" y="43.73"/>
          <use xlink:href="#img-b73a8ed8-15" x="31" y="46.13"/>
          <use xlink:href="#img-b73a8ed8-15" x="94.55" y="45.33"/>
          <use xlink:href="#img-b73a8ed8-15" x="90.32" y="42.94"/>
          <use xlink:href="#img-b73a8ed8-15" x="77.61" y="44.53"/>
          <use xlink:href="#img-b73a8ed8-15" x="64.89" y="43.73"/>
          <use xlink:href="#img-b73a8ed8-15" x="90.32" y="41.34"/>
          <use xlink:href="#img-b73a8ed8-15" x="64.89" y="42.94"/>
          <use xlink:href="#img-b73a8ed8-15" x="77.61" y="41.34"/>
          <use xlink:href="#img-b73a8ed8-15" x="64.89" y="42.94"/>
          <use xlink:href="#img-b73a8ed8-15" x="43.71" y="46.93"/>
          <use xlink:href="#img-b73a8ed8-15" x="64.89" y="41.34"/>
          <use xlink:href="#img-b73a8ed8-15" x="52.18" y="39.74"/>
          <use xlink:href="#img-b73a8ed8-15" x="60.66" y="42.14"/>
          <use xlink:href="#img-b73a8ed8-15" x="60.66" y="42.14"/>
          <use xlink:href="#img-b73a8ed8-15" x="69.13" y="42.94"/>
          <use xlink:href="#img-b73a8ed8-15" x="69.13" y="43.73"/>
          <use xlink:href="#img-b73a8ed8-15" x="47.95" y="42.14"/>
          <use xlink:href="#img-b73a8ed8-15" x="52.18" y="42.14"/>
          <use xlink:href="#img-b73a8ed8-15" x="77.61" y="42.94"/>
          <use xlink:href="#img-b73a8ed8-15" x="69.13" y="42.94"/>
          <use xlink:href="#img-b73a8ed8-15" x="81.84" y="43.73"/>
          <use xlink:href="#img-b73a8ed8-15" x="56.42" y="42.94"/>
          <use xlink:href="#img-b73a8ed8-15" x="60.66" y="45.33"/>
          <use xlink:href="#img-b73a8ed8-15" x="81.84" y="44.53"/>
          <use xlink:href="#img-b73a8ed8-15" x="56.42" y="42.94"/>
          <use xlink:href="#img-b73a8ed8-15" x="35.23" y="44.53"/>
          <use xlink:href="#img-b73a8ed8-15" x="64.89" y="42.94"/>
          <use xlink:href="#img-b73a8ed8-15" x="60.66" y="44.53"/>
          <use xlink:href="#img-b73a8ed8-15" x="39.47" y="44.53"/>
          <use xlink:href="#img-b73a8ed8-15" x="35.23" y="44.53"/>
          <use xlink:href="#img-b73a8ed8-15" x="60.66" y="42.14"/>
          <use xlink:href="#img-b73a8ed8-15" x="64.89" y="39.74"/>
          <use xlink:href="#img-b73a8ed8-15" x="52.18" y="43.73"/>
          <use xlink:href="#img-b73a8ed8-15" x="64.89" y="42.14"/>
          <use xlink:href="#img-b73a8ed8-15" x="43.71" y="43.73"/>
          <use xlink:href="#img-b73a8ed8-15" x="73.37" y="42.94"/>
          <use xlink:href="#img-b73a8ed8-15" x="60.66" y="43.73"/>
        </g>
      </g>
    </g>
  </g>
</g>
  <g class="guide ylabels" font-size="2.82" font-family="'PT Sans Caption','Helvetica Neue','Helvetica',sans-serif" fill="#6C606B" id="img-b73a8ed8-16">
    <text x="15.28" y="54.91" text-anchor="end" dy="0.35em">0</text>
    <text x="15.28" y="46.93" text-anchor="end" dy="0.35em">1</text>
    <text x="15.28" y="38.94" text-anchor="end" dy="0.35em">2</text>
    <text x="15.28" y="30.96" text-anchor="end" dy="0.35em">3</text>
    <text x="15.28" y="22.97" text-anchor="end" dy="0.35em">4</text>
    <text x="15.28" y="14.99" text-anchor="end" dy="0.35em">5</text>
    <text x="15.28" y="7" text-anchor="end" dy="0.35em">6</text>
  </g>
  <g font-size="3.88" font-family="'PT Sans','Helvetica Neue','Helvetica',sans-serif" fill="#564A55" stroke="#000000" stroke-opacity="0.000" id="img-b73a8ed8-17">
    <text x="8.81" y="28.96" text-anchor="middle" dy="0.35em" transform="rotate(-90, 8.81, 30.96)">petal length [cm]</text>
  </g>
</g>
<defs>
  <clipPath id="img-b73a8ed8-4">
  <path d="M16.28,5 L 147.4 5 147.4 56.91 16.28 56.91" />
</clipPath>
  <g id="img-b73a8ed8-12">
    <circle cx="0" cy="0" r="0.9"/>
  </g>
  <g id="img-b73a8ed8-15">
    <circle cx="0" cy="0" r="0.9"/>
  </g>
</defs>
</svg>
